<svg width="320" height="320" viewBox="0 0 320 320" fill="none" xmlns="http://www.w3.org/2000/svg">
  <rect width="320" height="320" rx="32" fill="#ffffff"/>
  <rect x="20" y="20" width="280" height="280" rx="20" fill="#F5FAF7"/>
  <rect x="42" y="42" width="70" height="70" rx="10" fill="#1F2937"/>
  <rect x="54" y="54" width="46" height="46" rx="6" fill="#ffffff"/>
  <rect x="66" y="66" width="22" height="22" rx="4" fill="#1F2937"/>
  <rect x="208" y="42" width="70" height="70" rx="10" fill="#1F2937"/>
  <rect x="220" y="54" width="46" height="46" rx="6" fill="#ffffff"/>
  <rect x="232" y="66" width="22" height="22" rx="4" fill="#1F2937"/>
  <rect x="42" y="208" width="70" height="70" rx="10" fill="#1F2937"/>
  <rect x="54" y="220" width="46" height="46" rx="6" fill="#ffffff"/>
  <rect x="66" y="232" width="22" height="22" rx="4" fill="#1F2937"/>
  <rect x="134" y="42" width="14" height="14" rx="3" fill="#1F2937"/>
  <rect x="158" y="42" width="14" height="14" rx="3" fill="#1F2937"/>
  <rect x="134" y="66" width="14" height="14" rx="3" fill="#1F2937"/>
  <rect x="158" y="66" width="14" height="14" rx="3" fill="#1F2937"/>
  <rect x="134" y="90" width="38" height="14" rx="3" fill="#1F2937"/>
  <rect x="134" y="134" width="14" height="14" rx="3" fill="#1F2937"/>
  <rect x="158" y="134" width="14" height="14" rx="3" fill="#1F2937"/>
  <rect x="182" y="134" width="14" height="14" rx="3" fill="#1F2937"/>
  <rect x="206" y="134" width="14" height="14" rx="3" fill="#1F2937"/>
  <rect x="230" y="134" width="14" height="14" rx="3" fill="#1F2937"/>
  <rect x="254" y="134" width="14" height="14" rx="3" fill="#1F2937"/>
  <rect x="134" y="158" width="14" height="14" rx="3" fill="#1F2937"/>
  <rect x="182" y="158" width="38" height="14" rx="3" fill="#1F2937"/>
  <rect x="230" y="158" width="14" height="14" rx="3" fill="#1F2937"/>
  <rect x="134" y="182" width="14" height="14" rx="3" fill="#1F2937"/>
  <rect x="158" y="182" width="14" height="14" rx="3" fill="#1F2937"/>
  <rect x="182" y="182" width="14" height="14" rx="3" fill="#1F2937"/>
  <rect x="206" y="182" width="14" height="14" rx="3" fill="#1F2937"/>
  <rect x="254" y="182" width="14" height="14" rx="3" fill="#1F2937"/>
  <rect x="134" y="206" width="14" height="14" rx="3" fill="#1F2937"/>
  <rect x="158" y="206" width="38" height="14" rx="3" fill="#1F2937"/>
  <rect x="230" y="206" width="38" height="14" rx="3" fill="#1F2937"/>
  <rect x="134" y="230" width="14" height="14" rx="3" fill="#1F2937"/>
  <rect x="182" y="230" width="14" height="14" rx="3" fill="#1F2937"/>
  <rect x="206" y="230" width="14" height="14" rx="3" fill="#1F2937"/>
  <rect x="230" y="230" width="14" height="14" rx="3" fill="#1F2937"/>
  <rect x="254" y="230" width="14" height="14" rx="3" fill="#1F2937"/>
  <rect x="134" y="254" width="86" height="14" rx="3" fill="#1F2937"/>
  <rect x="230" y="254" width="14" height="14" rx="3" fill="#1F2937"/>
  <rect x="254" y="254" width="14" height="14" rx="3" fill="#1F2937"/>
</svg>